<svg aria-roledescription="er" viewBox="0 0 481.6402587890625 342" style="max-width: 481.64px; background-color: white;" xmlns:xlink="http://www.w3.org/1999/xlink" xmlns="http://www.w3.org/2000/svg" width="100%" id="mermaid-0"><style>#mermaid-0{font-family:"trebuchet ms",verdana,arial,sans-serif;font-size:16px;fill:#000000;}#mermaid-0 .error-icon{fill:#552222;}#mermaid-0 .error-text{fill:#552222;stroke:#552222;}#mermaid-0 .edge-thickness-normal{stroke-width:2px;}#mermaid-0 .edge-thickness-thick{stroke-width:3.5px;}#mermaid-0 .edge-pattern-solid{stroke-dasharray:0;}#mermaid-0 .edge-pattern-dashed{stroke-dasharray:3;}#mermaid-0 .edge-pattern-dotted{stroke-dasharray:2;}#mermaid-0 .marker{fill:#000000;stroke:#000000;}#mermaid-0 .marker.cross{stroke:#000000;}#mermaid-0 svg{font-family:"trebuchet ms",verdana,arial,sans-serif;font-size:16px;}#mermaid-0 .entityBox{fill:#cde498;stroke:#13540c;}#mermaid-0 .attributeBoxOdd{fill:#ffffff;stroke:#13540c;}#mermaid-0 .attributeBoxEven{fill:#f2f2f2;stroke:#13540c;}#mermaid-0 .relationshipLabelBox{fill:hsl(78.1578947368, 58.4615384615%, 84.5098039216%);opacity:0.7;background-color:hsl(78.1578947368, 58.4615384615%, 84.5098039216%);}#mermaid-0 .relationshipLabelBox rect{opacity:0.5;}#mermaid-0 .relationshipLine{stroke:#000000;}#mermaid-0 .entityTitleText{text-anchor:middle;font-size:18px;fill:#000000;}#mermaid-0 :root{--mermaid-font-family:"trebuchet ms",verdana,arial,sans-serif;}</style><g/><defs><marker orient="auto" markerHeight="18" markerWidth="18" refY="9" refX="0" id="ONLY_ONE_START"><path d="M9,0 L9,18 M15,0 L15,18" fill="none" stroke="gray"/></marker></defs><defs><marker orient="auto" markerHeight="18" markerWidth="18" refY="9" refX="18" id="ONLY_ONE_END"><path d="M3,0 L3,18 M9,0 L9,18" fill="none" stroke="gray"/></marker></defs><defs><marker orient="auto" markerHeight="18" markerWidth="30" refY="9" refX="0" id="ZERO_OR_ONE_START"><circle r="6" cy="9" cx="21" fill="white" stroke="gray"/><path d="M9,0 L9,18" fill="none" stroke="gray"/></marker></defs><defs><marker orient="auto" markerHeight="18" markerWidth="30" refY="9" refX="30" id="ZERO_OR_ONE_END"><circle r="6" cy="9" cx="9" fill="white" stroke="gray"/><path d="M21,0 L21,18" fill="none" stroke="gray"/></marker></defs><defs><marker orient="auto" markerHeight="36" markerWidth="45" refY="18" refX="18" id="ONE_OR_MORE_START"><path d="M0,18 Q 18,0 36,18 Q 18,36 0,18 M42,9 L42,27" fill="none" stroke="gray"/></marker></defs><defs><marker orient="auto" markerHeight="36" markerWidth="45" refY="18" refX="27" id="ONE_OR_MORE_END"><path d="M3,9 L3,27 M9,18 Q27,0 45,18 Q27,36 9,18" fill="none" stroke="gray"/></marker></defs><defs><marker orient="auto" markerHeight="36" markerWidth="57" refY="18" refX="18" id="ZERO_OR_MORE_START"><circle r="6" cy="18" cx="48" fill="white" stroke="gray"/><path d="M0,18 Q18,0 36,18 Q18,36 0,18" fill="none" stroke="gray"/></marker></defs><defs><marker orient="auto" markerHeight="36" markerWidth="57" refY="18" refX="39" id="ZERO_OR_MORE_END"><circle r="6" cy="18" cx="9" fill="white" stroke="gray"/><path d="M21,18 Q39,0 57,18 Q39,36 21,18" fill="none" stroke="gray"/></marker></defs><path style="stroke: gray; fill: none;" marker-start="url(#ZERO_OR_MORE_START)" marker-end="url(#ONLY_ONE_END)" d="M81.146484375,88L81.146484375,96.33333333333333C81.146484375,104.66666666666667,81.146484375,121.33333333333333,84.70773793625357,138C88.26899149750712,154.66666666666666,95.39149862001425,171.33333333333334,98.9527521812678,179.66666666666666L102.51400574252136,188" class="er relationshipLine"/><path style="stroke: gray; fill: none;" marker-start="url(#ZERO_OR_MORE_START)" marker-end="url(#ONLY_ONE_END)" d="M319.4042510986328,77L305.62349700927734,87.16666666666667C291.8427429199219,97.33333333333333,264.28123474121094,117.66666666666667,242.98101895758907,136.16666666666666C221.68080317396723,154.66666666666666,206.6418797854345,171.33333333333334,199.1224180911681,179.66666666666666L191.6029563969017,188" class="er relationshipLine"/><path style="stroke: gray; fill: none;" marker-start="url(#ZERO_OR_MORE_START)" marker-end="url(#ONLY_ONE_END)" d="M364.27085949125745,77L370.3224467928447,87.16666666666667C376.37403409443203,97.33333333333333,388.4772086976066,117.66666666666667,394.52879599919396,139.83333333333334C400.58038330078125,162,400.58038330078125,186,400.58038330078125,198L400.58038330078125,210" class="er relationshipLine"/><g transform="translate(64.48504638671875,188 )" id="entity-habits-04429705-7800-432b-84b2-7d7e853130f9"><rect height="134" width="133.3228759765625" y="0" x="0" class="er entityBox"/><text style="dominant-baseline: middle; text-anchor: middle; font-size: 12px;" transform="translate(66.66143798828125,12)" y="0" x="0" id="text-entity-habits-04429705-7800-432b-84b2-7d7e853130f9" class="er entityLabel">habits</text><rect height="22" width="54.04840087890625" y="24" x="0" class="er attributeBoxOdd"/><text style="dominant-baseline: middle; font-size: 10.2px;" transform="translate(5,35)" y="0" x="0" id="text-entity-habits-04429705-7800-432b-84b2-7d7e853130f9-attr-1-type" class="er entityLabel">Int</text><rect height="22" width="57.59375" y="24" x="54.04840087890625" class="er attributeBoxOdd"/><text style="dominant-baseline: middle; font-size: 10.2px;" transform="translate(59.04840087890625,35)" y="0" x="0" id="text-entity-habits-04429705-7800-432b-84b2-7d7e853130f9-attr-1-name" class="er entityLabel">id</text><rect height="22" width="21.68072509765625" y="24" x="111.64215087890625" class="er attributeBoxOdd"/><text style="dominant-baseline: middle; font-size: 10.2px;" transform="translate(116.64215087890625,35)" y="0" x="0" id="text-entity-habits-04429705-7800-432b-84b2-7d7e853130f9-attr-1-key" class="er entityLabel">PK</text><rect height="22" width="54.04840087890625" y="46" x="0" class="er attributeBoxEven"/><text style="dominant-baseline: middle; font-size: 10.2px;" transform="translate(5,57)" y="0" x="0" id="text-entity-habits-04429705-7800-432b-84b2-7d7e853130f9-attr-2-type" class="er entityLabel">String</text><rect height="22" width="57.59375" y="46" x="54.04840087890625" class="er attributeBoxEven"/><text style="dominant-baseline: middle; font-size: 10.2px;" transform="translate(59.04840087890625,57)" y="0" x="0" id="text-entity-habits-04429705-7800-432b-84b2-7d7e853130f9-attr-2-name" class="er entityLabel">publicId</text><rect height="22" width="21.68072509765625" y="46" x="111.64215087890625" class="er attributeBoxEven"/><text style="dominant-baseline: middle; font-size: 10.2px;" transform="translate(116.64215087890625,57)" y="0" x="0" id="text-entity-habits-04429705-7800-432b-84b2-7d7e853130f9-attr-2-key" class="er entityLabel"/><rect height="22" width="54.04840087890625" y="68" x="0" class="er attributeBoxOdd"/><text style="dominant-baseline: middle; font-size: 10.2px;" transform="translate(5,79)" y="0" x="0" id="text-entity-habits-04429705-7800-432b-84b2-7d7e853130f9-attr-3-type" class="er entityLabel">String</text><rect height="22" width="57.59375" y="68" x="54.04840087890625" class="er attributeBoxOdd"/><text style="dominant-baseline: middle; font-size: 10.2px;" transform="translate(59.04840087890625,79)" y="0" x="0" id="text-entity-habits-04429705-7800-432b-84b2-7d7e853130f9-attr-3-name" class="er entityLabel">title</text><rect height="22" width="21.68072509765625" y="68" x="111.64215087890625" class="er attributeBoxOdd"/><text style="dominant-baseline: middle; font-size: 10.2px;" transform="translate(116.64215087890625,79)" y="0" x="0" id="text-entity-habits-04429705-7800-432b-84b2-7d7e853130f9-attr-3-key" class="er entityLabel"/><rect height="22" width="54.04840087890625" y="90" x="0" class="er attributeBoxEven"/><text style="dominant-baseline: middle; font-size: 10.2px;" transform="translate(5,101)" y="0" x="0" id="text-entity-habits-04429705-7800-432b-84b2-7d7e853130f9-attr-4-type" class="er entityLabel">DateTime</text><rect height="22" width="57.59375" y="90" x="54.04840087890625" class="er attributeBoxEven"/><text style="dominant-baseline: middle; font-size: 10.2px;" transform="translate(59.04840087890625,101)" y="0" x="0" id="text-entity-habits-04429705-7800-432b-84b2-7d7e853130f9-attr-4-name" class="er entityLabel">createdAt</text><rect height="22" width="21.68072509765625" y="90" x="111.64215087890625" class="er attributeBoxEven"/><text style="dominant-baseline: middle; font-size: 10.2px;" transform="translate(116.64215087890625,101)" y="0" x="0" id="text-entity-habits-04429705-7800-432b-84b2-7d7e853130f9-attr-4-key" class="er entityLabel"/><rect height="22" width="54.04840087890625" y="112" x="0" class="er attributeBoxOdd"/><text style="dominant-baseline: middle; font-size: 10.2px;" transform="translate(5,123)" y="0" x="0" id="text-entity-habits-04429705-7800-432b-84b2-7d7e853130f9-attr-5-type" class="er entityLabel">DateTime</text><rect height="22" width="57.59375" y="112" x="54.04840087890625" class="er attributeBoxOdd"/><text style="dominant-baseline: middle; font-size: 10.2px;" transform="translate(59.04840087890625,123)" y="0" x="0" id="text-entity-habits-04429705-7800-432b-84b2-7d7e853130f9-attr-5-name" class="er entityLabel">updatedAt</text><rect height="22" width="21.68072509765625" y="112" x="111.64215087890625" class="er attributeBoxOdd"/><text style="dominant-baseline: middle; font-size: 10.2px;" transform="translate(116.64215087890625,123)" y="0" x="0" id="text-entity-habits-04429705-7800-432b-84b2-7d7e853130f9-attr-5-key" class="er entityLabel"/></g><g transform="translate(20,20 )" id="entity-habitweekdays-c13163d5-7213-45b6-a1c5-0d3aceb7fe86"><rect height="68" width="122.29296875" y="0" x="0" class="er entityBox"/><text style="dominant-baseline: middle; text-anchor: middle; font-size: 12px;" transform="translate(61.146484375,12)" y="0" x="0" id="text-entity-habitweekdays-c13163d5-7213-45b6-a1c5-0d3aceb7fe86" class="er entityLabel">habit_week_days</text><rect height="22" width="39.448872884114586" y="24" x="0" class="er attributeBoxOdd"/><text style="dominant-baseline: middle; font-size: 10.2px;" transform="translate(5,35)" y="0" x="0" id="text-entity-habitweekdays-c13163d5-7213-45b6-a1c5-0d3aceb7fe86-attr-1-type" class="er entityLabel">String</text><rect height="22" width="58.198872884114586" y="24" x="39.448872884114586" class="er attributeBoxOdd"/><text style="dominant-baseline: middle; font-size: 10.2px;" transform="translate(44.448872884114586,35)" y="0" x="0" id="text-entity-habitweekdays-c13163d5-7213-45b6-a1c5-0d3aceb7fe86-attr-1-name" class="er entityLabel">publicId</text><rect height="22" width="24.645222981770832" y="24" x="97.64774576822917" class="er attributeBoxOdd"/><text style="dominant-baseline: middle; font-size: 10.2px;" transform="translate(102.64774576822917,35)" y="0" x="0" id="text-entity-habitweekdays-c13163d5-7213-45b6-a1c5-0d3aceb7fe86-attr-1-key" class="er entityLabel"/><rect height="22" width="39.448872884114586" y="46" x="0" class="er attributeBoxEven"/><text style="dominant-baseline: middle; font-size: 10.2px;" transform="translate(5,57)" y="0" x="0" id="text-entity-habitweekdays-c13163d5-7213-45b6-a1c5-0d3aceb7fe86-attr-2-type" class="er entityLabel">Int</text><rect height="22" width="58.198872884114586" y="46" x="39.448872884114586" class="er attributeBoxEven"/><text style="dominant-baseline: middle; font-size: 10.2px;" transform="translate(44.448872884114586,57)" y="0" x="0" id="text-entity-habitweekdays-c13163d5-7213-45b6-a1c5-0d3aceb7fe86-attr-2-name" class="er entityLabel">week_day</text><rect height="22" width="24.645222981770832" y="46" x="97.64774576822917" class="er attributeBoxEven"/><text style="dominant-baseline: middle; font-size: 10.2px;" transform="translate(102.64774576822917,57)" y="0" x="0" id="text-entity-habitweekdays-c13163d5-7213-45b6-a1c5-0d3aceb7fe86-attr-2-key" class="er entityLabel">PK</text></g><g transform="translate(339.5205078125,210 )" id="entity-days-a526bce3-ec9e-45fd-bf71-13bd31bd8c67"><rect height="90" width="122.1197509765625" y="0" x="0" class="er entityBox"/><text style="dominant-baseline: middle; text-anchor: middle; font-size: 12px;" transform="translate(61.05987548828125,12)" y="0" x="0" id="text-entity-days-a526bce3-ec9e-45fd-bf71-13bd31bd8c67" class="er entityLabel">days</text><rect height="22" width="54.04840087890625" y="24" x="0" class="er attributeBoxOdd"/><text style="dominant-baseline: middle; font-size: 10.2px;" transform="translate(5,35)" y="0" x="0" id="text-entity-days-a526bce3-ec9e-45fd-bf71-13bd31bd8c67-attr-1-type" class="er entityLabel">Int</text><rect height="22" width="46.390625" y="24" x="54.04840087890625" class="er attributeBoxOdd"/><text style="dominant-baseline: middle; font-size: 10.2px;" transform="translate(59.04840087890625,35)" y="0" x="0" id="text-entity-days-a526bce3-ec9e-45fd-bf71-13bd31bd8c67-attr-1-name" class="er entityLabel">id</text><rect height="22" width="21.68072509765625" y="24" x="100.43902587890625" class="er attributeBoxOdd"/><text style="dominant-baseline: middle; font-size: 10.2px;" transform="translate(105.43902587890625,35)" y="0" x="0" id="text-entity-days-a526bce3-ec9e-45fd-bf71-13bd31bd8c67-attr-1-key" class="er entityLabel">PK</text><rect height="22" width="54.04840087890625" y="46" x="0" class="er attributeBoxEven"/><text style="dominant-baseline: middle; font-size: 10.2px;" transform="translate(5,57)" y="0" x="0" id="text-entity-days-a526bce3-ec9e-45fd-bf71-13bd31bd8c67-attr-2-type" class="er entityLabel">String</text><rect height="22" width="46.390625" y="46" x="54.04840087890625" class="er attributeBoxEven"/><text style="dominant-baseline: middle; font-size: 10.2px;" transform="translate(59.04840087890625,57)" y="0" x="0" id="text-entity-days-a526bce3-ec9e-45fd-bf71-13bd31bd8c67-attr-2-name" class="er entityLabel">publicId</text><rect height="22" width="21.68072509765625" y="46" x="100.43902587890625" class="er attributeBoxEven"/><text style="dominant-baseline: middle; font-size: 10.2px;" transform="translate(105.43902587890625,57)" y="0" x="0" id="text-entity-days-a526bce3-ec9e-45fd-bf71-13bd31bd8c67-attr-2-key" class="er entityLabel"/><rect height="22" width="54.04840087890625" y="68" x="0" class="er attributeBoxOdd"/><text style="dominant-baseline: middle; font-size: 10.2px;" transform="translate(5,79)" y="0" x="0" id="text-entity-days-a526bce3-ec9e-45fd-bf71-13bd31bd8c67-attr-3-type" class="er entityLabel">DateTime</text><rect height="22" width="46.390625" y="68" x="54.04840087890625" class="er attributeBoxOdd"/><text style="dominant-baseline: middle; font-size: 10.2px;" transform="translate(59.04840087890625,79)" y="0" x="0" id="text-entity-days-a526bce3-ec9e-45fd-bf71-13bd31bd8c67-attr-3-name" class="er entityLabel">date</text><rect height="22" width="21.68072509765625" y="68" x="100.43902587890625" class="er attributeBoxOdd"/><text style="dominant-baseline: middle; font-size: 10.2px;" transform="translate(105.43902587890625,79)" y="0" x="0" id="text-entity-days-a526bce3-ec9e-45fd-bf71-13bd31bd8c67-attr-3-key" class="er entityLabel"/></g><g transform="translate(300.58038330078125,31 )" id="entity-dayhabits-b54da9e7-98ed-46ce-b7ac-5338106966c5"><rect height="46" width="100" y="0" x="0" class="er entityBox"/><text style="dominant-baseline: middle; text-anchor: middle; font-size: 12px;" transform="translate(50,12)" y="0" x="0" id="text-entity-dayhabits-b54da9e7-98ed-46ce-b7ac-5338106966c5" class="er entityLabel">day_habits</text><rect height="22" width="45.046875" y="24" x="0" class="er attributeBoxOdd"/><text style="dominant-baseline: middle; font-size: 10.2px;" transform="translate(5,35)" y="0" x="0" id="text-entity-dayhabits-b54da9e7-98ed-46ce-b7ac-5338106966c5-attr-1-type" class="er entityLabel">String</text><rect height="22" width="54.953125" y="24" x="45.046875" class="er attributeBoxOdd"/><text style="dominant-baseline: middle; font-size: 10.2px;" transform="translate(50.046875,35)" y="0" x="0" id="text-entity-dayhabits-b54da9e7-98ed-46ce-b7ac-5338106966c5-attr-1-name" class="er entityLabel">publicId</text></g><rect height="14" width="27.96875" y="132.4327850341797" x="71.03829956054688" class="er relationshipLabelBox"/><text style="text-anchor: middle; dominant-baseline: middle; font-size: 12px;" y="139.4327850341797" x="85.02267456054688" id="rel1" class="er relationshipLabel">habit</text><rect height="14" width="27.96875" y="121.52449035644531" x="238.01190185546875" class="er relationshipLabelBox"/><text style="text-anchor: middle; dominant-baseline: middle; font-size: 12px;" y="128.5244903564453" x="251.99627685546875" id="rel2" class="er relationshipLabel">habit</text><rect height="14" width="18.990234375" y="133.1622772216797" x="385.12274169921875" class="er relationshipLabelBox"/><text style="text-anchor: middle; dominant-baseline: middle; font-size: 12px;" y="140.1622772216797" x="394.61785888671875" id="rel3" class="er relationshipLabel">day</text></svg>